<svg xmlns="http://www.w3.org/2000/svg" version="1.1" xmlns:xlink="http://www.w3.org/1999/xlink" xmlns:svgjs="http://svgjs.dev/svgjs" width="2000" height="1999" viewBox="0 0 2000 1999"><g transform="matrix(1,0,0,1,-0.431486880466764,-0.4312711370263287)"><svg viewBox="0 0 343 343" data-background-color="#ffffff" preserveAspectRatio="xMidYMid meet" height="1999" width="2000" xmlns="http://www.w3.org/2000/svg" xmlns:xlink="http://www.w3.org/1999/xlink"><g id="tight-bounds" transform="matrix(1,0,0,1,0.0740000000000407,0.07400000000001228)"><svg viewBox="0 0 342.85155851775386 342.85155851775386" height="342.85155851775386" width="342.85155851775386"><g><svg></svg></g><g><svg viewBox="0 0 342.85155851775386 342.85155851775386" height="342.85155851775386" width="342.85155851775386"><g><path d="M0 171.426c0-94.676 76.75-171.426 171.426-171.426 94.676 0 171.426 76.75 171.426 171.426 0 94.676-76.75 171.426-171.426 171.426-94.676 0-171.426-76.75-171.426-171.426zM171.426 339.924c93.059 0 168.499-75.439 168.498-168.498 0-93.059-75.439-168.499-168.498-168.499-93.059 0-168.499 75.439-168.499 168.499 0 93.059 75.439 168.499 168.499 168.498z" data-fill-palette-color="tertiary" fill="#ffffff" stroke="transparent"></path><ellipse rx="164.56874808852186" ry="164.56874808852186" cx="171.42577925887693" cy="171.42577925887693" fill="#ffffff" stroke="transparent" stroke-width="0" fill-opacity="1" data-fill-palette-color="tertiary"></ellipse></g><g transform="matrix(1,0,0,1,64.84655864529837,106.76583159959767)"><svg viewBox="0 0 213.1584412271571 129.3198953185585" height="129.3198953185585" width="213.1584412271571"><g><svg viewBox="0 0 213.1584412271571 129.3198953185585" height="129.3198953185585" width="213.1584412271571"><g><svg viewBox="0 0 213.1584412271571 129.3198953185585" height="129.3198953185585" width="213.1584412271571"><g transform="matrix(1,0,0,1,0,78.24625304714571)"><svg viewBox="0 0 213.1584412271571 51.073642271412794" height="51.073642271412794" width="213.1584412271571"><g id="textblocktransform"><svg viewBox="0 0 213.1584412271571 51.073642271412794" height="51.073642271412794" width="213.1584412271571" id="textblock"><g><svg viewBox="0 0 213.1584412271571 32.45768069627254" height="32.45768069627254" width="213.1584412271571"><g transform="matrix(1,0,0,1,0,0)"><svg width="213.1584412271571" viewBox="2.13 -33.8 225.72 34.379999999999995" height="32.45768069627254" data-palette-color="#ffffff"><path d="M12.68 0.58L12.68 0.58Q10.38 0.58 8.46 0.2 6.55-0.18 5.05-0.73 3.55-1.28 2.55-1.83L2.55-1.83 2.13-5.95Q4.05-4.8 6.66-3.94 9.28-3.08 12.35-3.08L12.35-3.08Q16.05-3.08 17.82-4.39 19.6-5.7 19.6-8.33L19.6-8.33 19.6-8.72Q19.6-10.45 18.9-11.55 18.2-12.65 16.54-13.4 14.88-14.15 12.03-14.8L12.03-14.8Q8.43-15.65 6.26-16.81 4.1-17.98 3.14-19.73 2.18-21.48 2.18-24.08L2.18-24.08 2.18-24.3Q2.18-28.23 4.75-30.36 7.33-32.5 12.55-32.5L12.55-32.5Q15.98-32.5 18.39-31.8 20.8-31.1 22.33-30.25L22.33-30.25 22.7-26.45Q20.93-27.5 18.56-28.24 16.2-28.98 13.15-28.98L13.15-28.98Q10.73-28.98 9.22-28.4 7.73-27.83 7.05-26.75 6.38-25.68 6.38-24.15L6.38-24.15 6.38-24.05Q6.38-22.5 7.04-21.4 7.7-20.3 9.36-19.5 11.03-18.7 14.1-17.95L14.1-17.95Q17.63-17.13 19.75-16.05 21.88-14.98 22.84-13.25 23.8-11.53 23.8-8.75L23.8-8.75 23.8-8.22Q23.8-3.9 21.01-1.66 18.23 0.58 12.68 0.58ZM43.8-17.35L39.67 0 33.45 0 27.45-24.4 31.62-24.4 36.42-2.95 36.9-2.95 41.9-23.75 47.62-23.75 52.62-2.95 53.07-2.95 57.92-24.4 62.07-24.4 56.07 0 49.87 0 45.75-17.35 44.95-20.83 44.57-20.83 43.8-17.35ZM70.9-24.4L70.9 0 66.84 0 66.84-24.4 70.9-24.4ZM68.87-28.4L68.87-28.4Q67.62-28.4 67.01-29.06 66.4-29.73 66.4-30.88L66.4-30.88 66.4-31Q66.4-32.18 67.01-32.83 67.62-33.48 68.87-33.48L68.87-33.48Q70.12-33.48 70.75-32.83 71.37-32.18 71.37-31L71.37-31 71.37-30.88Q71.37-29.7 70.75-29.05 70.12-28.4 68.87-28.4ZM85.79-33.8L85.79-33.8Q87.67-33.8 89.16-33.46 90.64-33.13 91.89-32.63L91.89-32.63 92.29-29.45Q91.07-29.9 89.83-30.16 88.59-30.43 87.04-30.43L87.04-30.43Q85.17-30.43 84.03-29.94 82.89-29.45 82.41-28.56 81.92-27.68 81.92-26.43L81.92-26.43 81.92-26.3Q81.92-25.43 82.14-24.64 82.37-23.85 82.64-23.2L82.64-23.2 79.92-23.1 79.92-23.6Q79.14-24.2 78.56-25.28 77.97-26.35 77.97-27.78L77.97-27.78 77.97-27.9Q77.97-30.58 79.87-32.19 81.77-33.8 85.79-33.8ZM82.82-22.23L82.82 0 78.79 0 78.79-22.23 82.82-22.23ZM92.19-23.48L91.82-20.25 74.77-20.25 74.77-23.48 80.34-23.45 81.99-23.48 92.19-23.48ZM105.24 0.5L105.24 0.5Q102.42 0.5 100.69-0.35 98.97-1.2 98.19-2.93 97.42-4.65 97.42-7.23L97.42-7.23 97.42-22.63 101.42-22.63 101.42-7.7Q101.42-5.3 102.52-4.16 103.62-3.03 106.22-3.03L106.22-3.03Q107.69-3.03 109.05-3.35 110.42-3.68 111.62-4.28L111.62-4.28 111.24-0.8Q110.07-0.2 108.49 0.15 106.92 0.5 105.24 0.5ZM111.37-24.05L110.99-20.8 93.42-20.8 93.42-24.05 111.37-24.05ZM101.49-31.03L101.32-23.65 97.44-23.65 97.42-30.5 101.49-31.03ZM140.51 0L140.51 0 130.06 0 130.06-3.43 140.11-3.43Q143.36-3.43 144.72-4.81 146.09-6.2 146.09-8.65L146.09-8.65 146.09-9.55Q146.09-12.05 144.7-13.43 143.31-14.8 139.86-14.8L139.86-14.8 130.09-14.8 130.09-18.07 139.81-18.07Q142.89-18.07 144.2-19.41 145.51-20.75 145.51-23.13L145.51-23.13 145.51-23.58Q145.51-25.93 144.25-27.24 142.99-28.55 139.79-28.55L139.79-28.55 129.99-28.55 129.99-31.95 140.16-31.95Q145.26-31.95 147.46-29.93 149.66-27.9 149.66-24.23L149.66-24.23 149.66-23.73Q149.66-20.8 148.26-19.13 146.86-17.45 143.91-17.13L143.91-17.13 143.89-16.98Q147.26-16.48 148.79-14.63 150.31-12.78 150.31-9.47L150.31-9.47 150.31-8.45Q150.31-4.48 148.01-2.24 145.71 0 140.51 0ZM131.34-31.95L131.34 0 127.24 0 127.24-31.95 131.34-31.95ZM174.31-15.8L174.31 0 170.28 0 170.46-5.93 170.31-6.55 170.31-14.33 170.33-15.75Q170.33-18.73 168.82-20.15 167.31-21.58 164.03-21.58L164.03-21.58Q161.41-21.58 159.22-20.83 157.03-20.08 155.33-19.07L155.33-19.07 155.71-22.53Q156.66-23.1 157.97-23.66 159.28-24.23 160.97-24.6 162.66-24.98 164.68-24.98L164.68-24.98Q167.31-24.98 169.15-24.34 170.98-23.7 172.12-22.5 173.26-21.3 173.78-19.6 174.31-17.9 174.31-15.8L174.31-15.8ZM161.88 0.53L161.88 0.53Q158.26 0.53 156.32-1.24 154.38-3 154.38-6.28L154.38-6.28 154.38-7Q154.38-10.38 156.47-12.04 158.56-13.7 163.11-14.35L163.11-14.35 170.83-15.45 171.06-12.5 163.61-11.43Q160.81-11.03 159.61-10.06 158.41-9.1 158.41-7.23L158.41-7.23 158.41-6.83Q158.41-4.9 159.6-3.88 160.78-2.85 163.16-2.85L163.16-2.85Q165.26-2.85 166.76-3.58 168.26-4.3 169.18-5.53 170.11-6.75 170.43-8.25L170.43-8.25 171.06-5.5 170.28-5.5Q169.93-3.9 168.97-2.53 168.01-1.15 166.28-0.31 164.56 0.53 161.88 0.53ZM200.88-15.63L200.88 0 196.83 0 196.83-15.18Q196.83-17.15 196.29-18.57 195.76-20 194.54-20.79 193.33-21.58 191.23-21.58L191.23-21.58Q189.31-21.58 187.89-20.85 186.48-20.13 185.61-18.89 184.73-17.65 184.38-16.07L184.38-16.07 183.66-18.95 184.53-18.95Q184.93-20.6 185.93-21.96 186.93-23.33 188.62-24.14 190.31-24.95 192.76-24.95L192.76-24.95Q195.66-24.95 197.44-23.85 199.23-22.75 200.06-20.69 200.88-18.63 200.88-15.63L200.88-15.63ZM184.56-18.32L184.56 0 180.51 0 180.51-24.4 184.56-24.4 184.38-18.55 184.56-18.32ZM216.33-13.6L227.85 0 223 0 213.35-11.38 210.78-11.38 210.78-14.53 213.35-14.53 222.6-24.4 227.4-24.4 216.33-12.63 216.33-13.6ZM211.18-33.13L211.18 0 207.15 0 207.15-33.13 211.18-33.13Z" opacity="1" transform="matrix(1,0,0,1,0,0)" fill="#000000" class="wordmark-text-0" data-fill-palette-color="quaternary" id="text-0"></path></svg></g></svg></g><g transform="matrix(1,0,0,1,0,40.12016012432578)"><svg viewBox="0 0 213.1584412271571 10.953482147087014" height="10.953482147087014" width="213.1584412271571"><g transform="matrix(1,0,0,1,0,0)"><svg width="213.1584412271571" viewBox="3.78 -33.8 840.1 43.18" height="10.953482147087014" data-palette-color="#ffffff"><path d="M26.68 0L22.4 0 21.5-6.55Q21.25-8.4 20.65-9.76 20.05-11.13 18.81-11.9 17.57-12.68 15.3-12.68L15.3-12.68 6.63-12.7 6.63-15.98 15.9-16Q19.18-16 20.58-17.61 21.98-19.23 21.98-22L21.98-22 21.98-22.75Q21.98-25.5 20.55-27.01 19.13-28.53 15.8-28.53L15.8-28.53 6.5-28.53 6.5-31.95 16.35-31.95Q21.5-31.95 23.84-29.69 26.18-27.43 26.18-23.45L26.18-23.45 26.18-22.6Q26.18-19.48 24.7-17.49 23.23-15.5 19.8-15.08L19.8-15.08 19.8-14.58 18.03-15.2Q20.8-15 22.31-13.99 23.83-12.98 24.53-11.23 25.23-9.47 25.6-7.03L25.6-7.03 26.68 0ZM7.88 0L3.78 0 3.78-31.95 7.85-31.95 7.85-14.88 7.88-13.3 7.88 0ZM42.32 0.55L42.32 0.55Q36.75 0.55 33.92-2.18 31.1-4.9 31.1-9.98L31.1-9.98 31.1-14.33Q31.1-19.48 33.72-22.26 36.35-25.05 41.4-25.05L41.4-25.05Q44.8-25.05 47.07-23.79 49.35-22.53 50.5-20.2 51.65-17.88 51.65-14.65L51.65-14.65 51.65-13.75Q51.65-12.95 51.59-12.15 51.52-11.35 51.42-10.58L51.42-10.58 47.7-10.58Q47.75-11.78 47.76-12.85 47.77-13.93 47.77-14.83L47.77-14.83Q47.77-17.05 47.06-18.59 46.35-20.13 44.94-20.94 43.52-21.75 41.4-21.75L41.4-21.75Q38.25-21.75 36.67-19.93 35.1-18.1 35.1-14.7L35.1-14.7 35.1-12.38 35.12-11.88 35.12-9.55Q35.12-8.03 35.57-6.8 36.02-5.58 36.98-4.69 37.95-3.8 39.44-3.34 40.92-2.88 42.97-2.88L42.97-2.88Q45.35-2.88 47.4-3.5 49.45-4.13 51.25-5.2L51.25-5.2 50.87-1.7Q49.25-0.68 47.1-0.06 44.95 0.55 42.32 0.55ZM50.57-10.58L33.22-10.58 33.22-13.63 50.57-13.63 50.57-10.58ZM65.8-2.78L66.4-2.78 73.15-24.4 77.34-24.4 69.42 0 62.77 0 54.85-24.4 59.05-24.4 65.8-2.78ZM91.44 0.63L91.44 0.63Q86.19 0.63 83.48-2.21 80.77-5.05 80.77-10.38L80.77-10.38 80.77-14.1Q80.77-19.4 83.49-22.23 86.22-25.05 91.44-25.05L91.44-25.05Q96.69-25.05 99.41-22.23 102.12-19.4 102.12-14.1L102.12-14.1 102.12-10.38Q102.12-5.05 99.41-2.21 96.69 0.63 91.44 0.63ZM91.44-2.68L91.44-2.68Q94.69-2.68 96.38-4.6 98.07-6.53 98.07-10.15L98.07-10.15 98.07-14.33Q98.07-17.93 96.38-19.84 94.69-21.75 91.44-21.75L91.44-21.75Q88.22-21.75 86.52-19.84 84.82-17.93 84.82-14.33L84.82-14.33 84.82-10.15Q84.82-6.53 86.52-4.6 88.22-2.68 91.44-2.68ZM111.89 0L107.87 0 107.87-33.13 111.89-33.13 111.89 0ZM118.31-24.4L122.34-24.4 122.34-9.22Q122.34-7.3 122.88-5.86 123.41-4.42 124.64-3.64 125.86-2.85 127.94-2.85L127.94-2.85Q129.89-2.85 131.29-3.56 132.69-4.28 133.58-5.53 134.46-6.78 134.79-8.35L134.79-8.35 135.51-5.48 134.64-5.48Q134.26-3.83 133.26-2.46 132.26-1.1 130.58-0.29 128.89 0.53 126.41 0.53L126.41 0.53Q123.54 0.53 121.75-0.56 119.96-1.65 119.14-3.74 118.31-5.83 118.31-8.78L118.31-8.78 118.31-24.4ZM134.61-24.4L138.66-24.4 138.66 0 134.61 0 134.79-5.85 134.61-6.1 134.61-24.4ZM154.14 0.5L154.14 0.5Q151.31 0.5 149.59-0.35 147.86-1.2 147.09-2.93 146.31-4.65 146.31-7.23L146.31-7.23 146.31-22.63 150.31-22.63 150.31-7.7Q150.31-5.3 151.41-4.16 152.51-3.03 155.11-3.03L155.11-3.03Q156.59-3.03 157.95-3.35 159.31-3.68 160.51-4.28L160.51-4.28 160.14-0.8Q158.96-0.2 157.39 0.15 155.81 0.5 154.14 0.5ZM159.89-20.8L142.31-20.8 142.31-24.05 160.26-24.05 159.89-20.8ZM150.21-23.65L146.34-23.65 146.31-30.5 150.39-31.03 150.21-23.65ZM169.16 0L165.11 0 165.11-24.4 169.16-24.4 169.16 0ZM167.13-28.4L167.13-28.4Q165.88-28.4 165.27-29.06 164.66-29.73 164.66-30.88L164.66-30.88 164.66-31Q164.66-32.18 165.27-32.83 165.88-33.48 167.13-33.48L167.13-33.48Q168.38-33.48 169.01-32.83 169.63-32.18 169.63-31L169.63-31 169.63-30.88Q169.63-29.7 169.01-29.05 168.38-28.4 167.13-28.4ZM185.56 0.63L185.56 0.63Q180.31 0.63 177.59-2.21 174.88-5.05 174.88-10.38L174.88-10.38 174.88-14.1Q174.88-19.4 177.61-22.23 180.33-25.05 185.56-25.05L185.56-25.05Q190.81-25.05 193.52-22.23 196.23-19.4 196.23-14.1L196.23-14.1 196.23-10.38Q196.23-5.05 193.52-2.21 190.81 0.63 185.56 0.63ZM185.56-2.68L185.56-2.68Q188.81-2.68 190.49-4.6 192.18-6.53 192.18-10.15L192.18-10.15 192.18-14.33Q192.18-17.93 190.49-19.84 188.81-21.75 185.56-21.75L185.56-21.75Q182.33-21.75 180.63-19.84 178.93-17.93 178.93-14.33L178.93-14.33 178.93-10.15Q178.93-6.53 180.63-4.6 182.33-2.68 185.56-2.68ZM222.23 0L218.18 0 218.18-15.18Q218.18-17.15 217.64-18.57 217.1-20 215.89-20.79 214.68-21.58 212.58-21.58L212.58-21.58Q210.65-21.58 209.24-20.85 207.83-20.13 206.95-18.89 206.08-17.65 205.73-16.07L205.73-16.07 205-18.95 205.88-18.95Q206.28-20.6 207.28-21.96 208.28-23.33 209.97-24.14 211.65-24.95 214.1-24.95L214.1-24.95Q217-24.95 218.79-23.85 220.58-22.75 221.4-20.69 222.23-18.63 222.23-15.63L222.23-15.63 222.23 0ZM205.9 0L201.85 0 201.85-24.4 205.9-24.4 205.73-18.55 205.9-18.32 205.9 0ZM232.63 0L228.58 0 228.58-24.4 232.63-24.4 232.63 0ZM230.6-28.4L230.6-28.4Q229.35-28.4 228.74-29.06 228.13-29.73 228.13-30.88L228.13-30.88 228.13-31Q228.13-32.18 228.74-32.83 229.35-33.48 230.6-33.48L230.6-33.48Q231.85-33.48 232.48-32.83 233.1-32.18 233.1-31L233.1-31 233.1-30.88Q233.1-29.7 232.48-29.05 231.85-28.4 230.6-28.4ZM242.9-3.35L256.57-3.35 256.57 0 238.05 0 238.05-3.05 251.62-21.08 238.1-21.08 238.1-24.4 256.47-24.4 256.47-21.38 242.9-3.35ZM266.02 0L261.97 0 261.97-24.4 266.02-24.4 266.02 0ZM264-28.4L264-28.4Q262.75-28.4 262.13-29.06 261.52-29.73 261.52-30.88L261.52-30.88 261.52-31Q261.52-32.18 262.13-32.83 262.75-33.48 264-33.48L264-33.48Q265.25-33.48 265.87-32.83 266.5-32.18 266.5-31L266.5-31 266.5-30.88Q266.5-29.7 265.87-29.05 265.25-28.4 264-28.4ZM293.09 0L289.04 0 289.04-15.18Q289.04-17.15 288.5-18.57 287.97-20 286.75-20.79 285.54-21.58 283.44-21.58L283.44-21.58Q281.52-21.58 280.11-20.85 278.69-20.13 277.82-18.89 276.94-17.65 276.59-16.07L276.59-16.07 275.87-18.95 276.74-18.95Q277.14-20.6 278.14-21.96 279.14-23.33 280.83-24.14 282.52-24.95 284.97-24.95L284.97-24.95Q287.87-24.95 289.66-23.85 291.44-22.75 292.27-20.69 293.09-18.63 293.09-15.63L293.09-15.63 293.09 0ZM276.77 0L272.72 0 272.72-24.4 276.77-24.4 276.59-18.55 276.77-18.32 276.77 0ZM308.87-7.3L308.87-7.3Q303.89-7.3 301.23-9.47 298.56-11.65 298.56-15.7L298.56-15.7 298.56-16.32Q298.56-18.85 299.6-20.73 300.64-22.6 302.92-23.66 305.19-24.73 308.87-24.83L308.87-24.83 321.31-25.23 321.31-22.03 313.96-22.28 313.94-22.1Q315.67-21.75 316.76-20.9 317.87-20.05 318.4-18.78 318.94-17.5 318.94-15.8L318.94-15.8 318.94-15.25Q318.94-11.38 316.39-9.34 313.84-7.3 308.87-7.3ZM308.69 6.15L308.69 6.15 309.26 6.15Q311.51 6.15 313.13 5.81 314.74 5.48 315.62 4.75 316.49 4.03 316.49 2.83L316.49 2.83 316.49 2.73Q316.49 1.33 315.48 0.59 314.46-0.15 312.01-0.38L312.01-0.38 305.12-1 306.26-1.05Q304.87-0.85 303.8-0.4 302.74 0.05 302.14 0.79 301.54 1.53 301.54 2.63L301.54 2.63 301.54 2.68Q301.54 3.95 302.42 4.73 303.29 5.5 304.89 5.83 306.49 6.15 308.69 6.15ZM309.19 9.38L308.46 9.38Q305.17 9.38 302.78 8.81 300.39 8.25 299.08 6.99 297.76 5.73 297.76 3.6L297.76 3.6 297.76 3.5Q297.76 2 298.48 1 299.19 0 300.4-0.58 301.62-1.15 303.12-1.35L303.12-1.35 303.09-1.5Q301.04-1.85 300.06-2.71 299.09-3.58 299.09-4.95L299.09-4.95 299.09-4.98Q299.09-5.93 299.53-6.6 299.96-7.28 300.85-7.68 301.74-8.08 303.12-8.18L303.12-8.18 303.12-8.68 307.76-7.5 305.87-7.55Q304.17-7.53 303.51-7.14 302.87-6.75 302.87-5.98L302.87-5.98 302.87-5.95Q302.87-5.13 303.79-4.7 304.71-4.28 306.94-4.03L306.94-4.03 312.87-3.43Q316.74-3.03 318.51-1.56 320.29-0.1 320.29 2.75L320.29 2.75 320.29 2.88Q320.29 5.15 318.94 6.6 317.59 8.05 315.12 8.71 312.64 9.38 309.19 9.38L309.19 9.38ZM308.81-10.3L308.81-10.3Q310.92-10.3 312.3-10.91 313.69-11.53 314.4-12.76 315.12-14 315.12-15.8L315.12-15.8 315.12-16.4Q315.12-18.15 314.43-19.38 313.74-20.6 312.37-21.24 310.99-21.88 308.92-21.88L308.92-21.88 308.76-21.88Q306.51-21.88 305.1-21.19 303.69-20.5 303.05-19.26 302.42-18.03 302.42-16.38L302.42-16.38 302.42-15.8Q302.42-14 303.13-12.78 303.84-11.55 305.26-10.93 306.69-10.3 308.81-10.3ZM349.26 0L338.81 0 338.81-3.43 348.86-3.43Q352.11-3.43 353.47-4.81 354.83-6.2 354.83-8.65L354.83-8.65 354.83-9.55Q354.83-12.05 353.45-13.43 352.06-14.8 348.61-14.8L348.61-14.8 338.83-14.8 338.83-18.07 348.56-18.07Q351.63-18.07 352.95-19.41 354.26-20.75 354.26-23.13L354.26-23.13 354.26-23.58Q354.26-25.93 353-27.24 351.73-28.55 348.53-28.55L348.53-28.55 338.73-28.55 338.73-31.95 348.91-31.95Q354.01-31.95 356.21-29.93 358.41-27.9 358.41-24.23L358.41-24.23 358.41-23.73Q358.41-20.8 357.01-19.13 355.61-17.45 352.66-17.13L352.66-17.13 352.63-16.98Q356.01-16.48 357.53-14.63 359.06-12.78 359.06-9.47L359.06-9.47 359.06-8.45Q359.06-4.48 356.76-2.24 354.46 0 349.26 0L349.26 0ZM340.08 0L335.98 0 335.98-31.95 340.08-31.95 340.08 0ZM383.06 0L379.03 0 379.21-5.93 379.06-6.55 379.06-14.33 379.08-15.75Q379.08-18.73 377.57-20.15 376.06-21.58 372.78-21.58L372.78-21.58Q370.16-21.58 367.97-20.83 365.78-20.08 364.08-19.07L364.08-19.07 364.46-22.53Q365.41-23.1 366.72-23.66 368.03-24.23 369.72-24.6 371.41-24.98 373.43-24.98L373.43-24.98Q376.06-24.98 377.89-24.34 379.73-23.7 380.87-22.5 382.01-21.3 382.53-19.6 383.06-17.9 383.06-15.8L383.06-15.8 383.06 0ZM370.63 0.53L370.63 0.53Q367.01 0.53 365.07-1.24 363.13-3 363.13-6.28L363.13-6.28 363.13-7Q363.13-10.38 365.22-12.04 367.31-13.7 371.86-14.35L371.86-14.35 379.58-15.45 379.81-12.5 372.36-11.43Q369.56-11.03 368.36-10.06 367.16-9.1 367.16-7.23L367.16-7.23 367.16-6.83Q367.16-4.9 368.34-3.88 369.53-2.85 371.91-2.85L371.91-2.85Q374.01-2.85 375.51-3.58 377.01-4.3 377.93-5.53 378.86-6.75 379.18-8.25L379.18-8.25 379.81-5.5 379.03-5.5Q378.68-3.9 377.72-2.53 376.76-1.15 375.03-0.31 373.31 0.53 370.63 0.53ZM409.63 0L405.58 0 405.58-15.18Q405.58-17.15 405.04-18.57 404.5-20 403.29-20.79 402.08-21.58 399.98-21.58L399.98-21.58Q398.06-21.58 396.64-20.85 395.23-20.13 394.35-18.89 393.48-17.65 393.13-16.07L393.13-16.07 392.4-18.95 393.28-18.95Q393.68-20.6 394.68-21.96 395.68-23.33 397.37-24.14 399.06-24.95 401.5-24.95L401.5-24.95Q404.4-24.95 406.19-23.85 407.98-22.75 408.81-20.69 409.63-18.63 409.63-15.63L409.63-15.63 409.63 0ZM393.31 0L389.25 0 389.25-24.4 393.31-24.4 393.13-18.55 393.31-18.32 393.31 0ZM436.6 0L431.75 0 422.1-11.38 419.53-11.38 419.53-14.53 422.1-14.53 431.35-24.4 436.15-24.4 425.08-12.63 425.08-13.6 436.6 0ZM419.93 0L415.9 0 415.9-33.13 419.93-33.13 419.93 0ZM444.75 0L440.7 0 440.7-24.4 444.75-24.4 444.75 0ZM442.72-28.4L442.72-28.4Q441.47-28.4 440.86-29.06 440.25-29.73 440.25-30.88L440.25-30.88 440.25-31Q440.25-32.18 440.86-32.83 441.47-33.48 442.72-33.48L442.72-33.48Q443.97-33.48 444.6-32.83 445.22-32.18 445.22-31L445.22-31 445.22-30.88Q445.22-29.7 444.6-29.05 443.97-28.4 442.72-28.4ZM471.82 0L467.77 0 467.77-15.18Q467.77-17.15 467.23-18.57 466.7-20 465.48-20.79 464.27-21.58 462.17-21.58L462.17-21.58Q460.25-21.58 458.83-20.85 457.42-20.13 456.55-18.89 455.67-17.65 455.32-16.07L455.32-16.07 454.6-18.95 455.47-18.95Q455.87-20.6 456.87-21.96 457.87-23.33 459.56-24.14 461.25-24.95 463.7-24.95L463.7-24.95Q466.6-24.95 468.38-23.85 470.17-22.75 471-20.69 471.82-18.63 471.82-15.63L471.82-15.63 471.82 0ZM455.5 0L451.45 0 451.45-24.4 455.5-24.4 455.32-18.55 455.5-18.32 455.5 0ZM487.59-7.3L487.59-7.3Q482.62-7.3 479.96-9.47 477.29-11.65 477.29-15.7L477.29-15.7 477.29-16.32Q477.29-18.85 478.33-20.73 479.37-22.6 481.64-23.66 483.92-24.73 487.59-24.83L487.59-24.83 500.04-25.23 500.04-22.03 492.69-22.28 492.67-22.1Q494.39-21.75 495.49-20.9 496.59-20.05 497.13-18.78 497.67-17.5 497.67-15.8L497.67-15.8 497.67-15.25Q497.67-11.38 495.12-9.34 492.57-7.3 487.59-7.3ZM487.42 6.15L487.42 6.15 487.99 6.15Q490.24 6.15 491.86 5.81 493.47 5.48 494.34 4.75 495.22 4.03 495.22 2.83L495.22 2.83 495.22 2.73Q495.22 1.33 494.21 0.59 493.19-0.15 490.74-0.38L490.74-0.38 483.84-1 484.99-1.05Q483.59-0.85 482.53-0.4 481.47 0.05 480.87 0.79 480.27 1.53 480.27 2.63L480.27 2.63 480.27 2.68Q480.27 3.95 481.14 4.73 482.02 5.5 483.62 5.83 485.22 6.15 487.42 6.15ZM487.92 9.38L487.19 9.38Q483.89 9.38 481.51 8.81 479.12 8.25 477.81 6.99 476.49 5.73 476.49 3.6L476.49 3.6 476.49 3.5Q476.49 2 477.21 1 477.92 0 479.13-0.58 480.34-1.15 481.84-1.35L481.84-1.35 481.82-1.5Q479.77-1.85 478.79-2.71 477.82-3.58 477.82-4.95L477.82-4.95 477.82-4.98Q477.82-5.93 478.26-6.6 478.69-7.28 479.58-7.68 480.47-8.08 481.84-8.18L481.84-8.18 481.84-8.68 486.49-7.5 484.59-7.55Q482.89-7.53 482.24-7.14 481.59-6.75 481.59-5.98L481.59-5.98 481.59-5.95Q481.59-5.13 482.52-4.7 483.44-4.28 485.67-4.03L485.67-4.03 491.59-3.43Q495.47-3.03 497.24-1.56 499.02-0.1 499.02 2.75L499.02 2.75 499.02 2.88Q499.02 5.15 497.67 6.6 496.32 8.05 493.84 8.71 491.37 9.38 487.92 9.38L487.92 9.38ZM487.54-10.3L487.54-10.3Q489.64-10.3 491.03-10.91 492.42-11.53 493.13-12.76 493.84-14 493.84-15.8L493.84-15.8 493.84-16.4Q493.84-18.15 493.16-19.38 492.47-20.6 491.09-21.24 489.72-21.88 487.64-21.88L487.64-21.88 487.49-21.88Q485.24-21.88 483.83-21.19 482.42-20.5 481.78-19.26 481.14-18.03 481.14-16.38L481.14-16.38 481.14-15.8Q481.14-14 481.86-12.78 482.57-11.55 483.99-10.93 485.42-10.3 487.54-10.3ZM524.56 0L518.34 0 512.34-24.4 516.51-24.4 521.31-2.95 521.79-2.95 526.79-23.75 532.51-23.75 537.51-2.95 537.96-2.95 542.81-24.4 546.96-24.4 540.96 0 534.76 0 530.64-17.35 529.84-20.83 529.46-20.83 528.69-17.35 524.56 0ZM555.79 0L551.74 0 551.74-24.4 555.79-24.4 555.79 0ZM553.76-28.4L553.76-28.4Q552.51-28.4 551.9-29.06 551.29-29.73 551.29-30.88L551.29-30.88 551.29-31Q551.29-32.18 551.9-32.83 552.51-33.48 553.76-33.48L553.76-33.48Q555.01-33.48 555.64-32.83 556.26-32.18 556.26-31L556.26-31 556.26-30.88Q556.26-29.7 555.64-29.05 555.01-28.4 553.76-28.4ZM571.36 0.5L571.36 0.5Q568.53 0.5 566.81-0.35 565.08-1.2 564.31-2.93 563.53-4.65 563.53-7.23L563.53-7.23 563.53-22.63 567.53-22.63 567.53-7.7Q567.53-5.3 568.63-4.16 569.73-3.03 572.33-3.03L572.33-3.03Q573.81-3.03 575.17-3.35 576.53-3.68 577.73-4.28L577.73-4.28 577.36-0.8Q576.18-0.2 574.61 0.15 573.03 0.5 571.36 0.5ZM577.11-20.8L559.53-20.8 559.53-24.05 577.48-24.05 577.11-20.8ZM567.43-23.65L563.56-23.65 563.53-30.5 567.61-31.03 567.43-23.65ZM602.63 0L598.58 0 598.58-15.18Q598.58-17.15 598.04-18.57 597.51-20 596.29-20.79 595.08-21.58 592.98-21.58L592.98-21.58Q591.06-21.58 589.66-20.85 588.26-20.13 587.39-18.89 586.53-17.65 586.18-16.07L586.18-16.07 585.28-18.95 586.33-18.95Q586.71-20.6 587.71-21.96 588.71-23.33 590.39-24.14 592.08-24.95 594.51-24.95L594.51-24.95Q597.41-24.95 599.19-23.85 600.98-22.75 601.81-20.69 602.63-18.63 602.63-15.63L602.63-15.63 602.63 0ZM586.31 0L582.26 0 582.26-33.13 586.28-33.13 586.28-25.18 586.16-18.18 586.31-17.85 586.31 0ZM628.8 0.58L628.8 0.58Q626.5 0.58 624.59 0.2 622.68-0.18 621.18-0.73 619.68-1.28 618.68-1.83L618.68-1.83 618.25-5.95Q620.18-4.8 622.79-3.94 625.4-3.08 628.48-3.08L628.48-3.08Q632.18-3.08 633.95-4.39 635.73-5.7 635.73-8.33L635.73-8.33 635.73-8.72Q635.73-10.45 635.03-11.55 634.33-12.65 632.66-13.4 631-14.15 628.15-14.8L628.15-14.8Q624.55-15.65 622.39-16.81 620.23-17.98 619.26-19.73 618.3-21.48 618.3-24.08L618.3-24.08 618.3-24.3Q618.3-28.23 620.88-30.36 623.45-32.5 628.68-32.5L628.68-32.5Q632.1-32.5 634.51-31.8 636.93-31.1 638.45-30.25L638.45-30.25 638.83-26.45Q637.05-27.5 634.69-28.24 632.33-28.98 629.28-28.98L629.28-28.98Q626.85-28.98 625.35-28.4 623.85-27.83 623.18-26.75 622.5-25.68 622.5-24.15L622.5-24.15 622.5-24.05Q622.5-22.5 623.16-21.4 623.83-20.3 625.49-19.5 627.15-18.7 630.23-17.95L630.23-17.95Q633.75-17.13 635.88-16.05 638-14.98 638.96-13.25 639.93-11.53 639.93-8.75L639.93-8.75 639.93-8.22Q639.93-3.9 637.14-1.66 634.35 0.58 628.8 0.58ZM655.8 0L649.57 0 643.57-24.4 647.75-24.4 652.55-2.95 653.02-2.95 658.02-23.75 663.75-23.75 668.75-2.95 669.2-2.95 674.05-24.4 678.2-24.4 672.2 0 666 0 661.87-17.35 661.07-20.83 660.7-20.83 659.92-17.35 655.8 0ZM687.02 0L682.97 0 682.97-24.4 687.02-24.4 687.02 0ZM685-28.4L685-28.4Q683.75-28.4 683.13-29.06 682.52-29.73 682.52-30.88L682.52-30.88 682.52-31Q682.52-32.18 683.13-32.83 683.75-33.48 685-33.48L685-33.48Q686.25-33.48 686.87-32.83 687.5-32.18 687.5-31L687.5-31 687.5-30.88Q687.5-29.7 686.87-29.05 686.25-28.4 685-28.4ZM701.92-33.8L701.92-33.8Q703.79-33.8 705.28-33.46 706.77-33.13 708.02-32.63L708.02-32.63 708.42-29.45Q707.19-29.9 705.96-30.16 704.72-30.43 703.17-30.43L703.17-30.43Q701.29-30.43 700.16-29.94 699.02-29.45 698.53-28.56 698.04-27.68 698.04-26.43L698.04-26.43 698.04-26.3Q698.04-25.43 698.27-24.64 698.49-23.85 698.77-23.2L698.77-23.2 696.04-23.1 696.04-23.6Q695.27-24.2 694.68-25.28 694.09-26.35 694.09-27.78L694.09-27.78 694.09-27.9Q694.09-30.58 695.99-32.19 697.89-33.8 701.92-33.8ZM698.94 0L694.92 0 694.92-22.23 698.94-22.23 698.94 0ZM707.94-20.25L690.89-20.25 690.89-23.48 696.47-23.45 698.12-23.48 708.32-23.48 707.94-20.25ZM721.37 0.5L721.37 0.5Q718.54 0.5 716.82-0.35 715.09-1.2 714.32-2.93 713.54-4.65 713.54-7.23L713.54-7.23 713.54-22.63 717.54-22.63 717.54-7.7Q717.54-5.3 718.64-4.16 719.74-3.03 722.34-3.03L722.34-3.03Q723.82-3.03 725.18-3.35 726.54-3.68 727.74-4.28L727.74-4.28 727.37-0.8Q726.19-0.2 724.62 0.15 723.04 0.5 721.37 0.5ZM727.12-20.8L709.54-20.8 709.54-24.05 727.49-24.05 727.12-20.8ZM717.44-23.65L713.57-23.65 713.54-30.5 717.62-31.03 717.44-23.65ZM756.54 0L746.09 0 746.09-3.43 756.14-3.43Q759.39-3.43 760.75-4.81 762.11-6.2 762.11-8.65L762.11-8.65 762.11-9.55Q762.11-12.05 760.72-13.43 759.34-14.8 755.89-14.8L755.89-14.8 746.11-14.8 746.11-18.07 755.84-18.07Q758.91-18.07 760.22-19.41 761.54-20.75 761.54-23.13L761.54-23.13 761.54-23.58Q761.54-25.93 760.27-27.24 759.01-28.55 755.81-28.55L755.81-28.55 746.01-28.55 746.01-31.95 756.19-31.95Q761.29-31.95 763.49-29.93 765.69-27.9 765.69-24.23L765.69-24.23 765.69-23.73Q765.69-20.8 764.29-19.13 762.89-17.45 759.94-17.13L759.94-17.13 759.91-16.98Q763.29-16.48 764.81-14.63 766.34-12.78 766.34-9.47L766.34-9.47 766.34-8.45Q766.34-4.48 764.04-2.24 761.74 0 756.54 0L756.54 0ZM747.36 0L743.26 0 743.26-31.95 747.36-31.95 747.36 0ZM790.33 0L786.31 0 786.48-5.93 786.33-6.55 786.33-14.33 786.36-15.75Q786.36-18.73 784.85-20.15 783.33-21.58 780.06-21.58L780.06-21.58Q777.43-21.58 775.25-20.83 773.06-20.08 771.36-19.07L771.36-19.07 771.73-22.53Q772.68-23.1 774-23.66 775.31-24.23 777-24.6 778.68-24.98 780.71-24.98L780.71-24.98Q783.33-24.98 785.17-24.34 787.01-23.7 788.15-22.5 789.28-21.3 789.81-19.6 790.33-17.9 790.33-15.8L790.33-15.8 790.33 0ZM777.91 0.53L777.91 0.53Q774.28 0.53 772.35-1.24 770.41-3 770.41-6.28L770.41-6.28 770.41-7Q770.41-10.38 772.5-12.04 774.58-13.7 779.13-14.35L779.13-14.35 786.86-15.45 787.08-12.5 779.63-11.43Q776.83-11.03 775.63-10.06 774.43-9.1 774.43-7.23L774.43-7.23 774.43-6.83Q774.43-4.9 775.62-3.88 776.81-2.85 779.18-2.85L779.18-2.85Q781.28-2.85 782.78-3.58 784.28-4.3 785.21-5.53 786.13-6.75 786.46-8.25L786.46-8.25 787.08-5.5 786.31-5.5Q785.96-3.9 785-2.53 784.03-1.15 782.31-0.31 780.58 0.53 777.91 0.53ZM816.91 0L812.86 0 812.86-15.18Q812.86-17.15 812.32-18.57 811.78-20 810.57-20.79 809.36-21.58 807.26-21.58L807.26-21.58Q805.33-21.58 803.92-20.85 802.51-20.13 801.63-18.89 800.76-17.65 800.41-16.07L800.41-16.07 799.68-18.95 800.56-18.95Q800.96-20.6 801.96-21.96 802.96-23.33 804.64-24.14 806.33-24.95 808.78-24.95L808.78-24.95Q811.68-24.95 813.47-23.85 815.26-22.75 816.08-20.69 816.91-18.63 816.91-15.63L816.91-15.63 816.91 0ZM800.58 0L796.53 0 796.53-24.4 800.58-24.4 800.41-18.55 800.58-18.32 800.58 0ZM843.88 0L839.03 0 829.38-11.38 826.8-11.38 826.8-14.53 829.38-14.53 838.63-24.4 843.43-24.4 832.35-12.63 832.35-13.6 843.88 0ZM827.2 0L823.18 0 823.18-33.13 827.2-33.13 827.2 0Z" opacity="1" transform="matrix(1,0,0,1,0,0)" fill="#000000" class="slogan-text-1" data-fill-palette-color="quaternary" id="text-1"></path></svg></g></svg></g></svg></g></svg></g><g transform="matrix(1,0,0,1,74.69220934306733,0)"><svg viewBox="0 0 63.77402254102246 70.58377361909248" height="70.58377361909248" width="63.77402254102246"><g><svg xmlns="http://www.w3.org/2000/svg" xml:space="preserve" viewBox="7.024011444401831 2.435463019617729 85.95228881548567 95.13022158658127" x="0" y="0" height="70.58377361909248" width="63.77402254102246" class="icon-icon-0" data-fill-palette-color="quaternary" id="icon-0"><path d="M21.813 45.358c1.367 0.651 3.254-0.055 2.224-1.242-1.031-1.192-4.806-2.52-4.267-5.632 1.521-8.726 22.665-34.918 24.457-35.792 0.793-0.565 1.611-0.21 1.113 1.197-0.503 1.412-8.959 15.728-9.818 16.3 0 0 6.636-8.171 9.535-14.696 0.357-0.904 1.36-0.078 0.97 1.316-0.398 1.389-5.026 11.175-9.166 16.193 0 0 2.97-3.356 5.585-7.072 0.311-0.666 1.764-1.199 1 0.646-0.766 1.841-3.159 6.184-4.006 7.022 0 0 2.608-3.032 2.974-2.884 0.354 0.149 0.898 0.027-0.124 1.53l-4.454 6.554s3.513-3.959 3.635-3.453c0.11 0.51-1.377 4.531-4.458 7.034 0 0 3.493-2.845 3.357-1.973-0.128 0.864-3 3.982-3.568 4.922-6.218 10.251 5.898 15.774 9.936 16.742 10.258 1.679 33.514-1.703 43.767-8.136 0 0 0.976-0.257 0.371 0.671-2.043 3.139-19.516 9.164-21.53 9.835-4.829 1.615-12.613 7.146 1.212 11.56 5.415 1.729 20.635 4.521 22.025 4.906 0 0 0.944 0.699-0.093 0.979-1.854 0.494-30.538-1-44.674-8.675-5.031-2.942-12.233 8.738-9.57 14.233 0.581 1.199 2.963 3.743 1.849 3.634-1.112-0.12-3.391-3.938-4.548-3.994 0 0 6.7 6.779 6.131 7.62-0.441 0.643-1.598-0.692-1.921-0.901 0 0 3.465 4.854 3.089 5.132-0.58 0.43-2.708-2.244-2.708-2.244s4.193 5.463 3.367 6.011c-0.472 0.307-6.361-8.296-7.9-8.599 0 0 9.986 13.025 8.777 13.455-1.207 0.433-14.102-15.453-16.745-19.107-2.887-4.003-9.843-11.078-6.984-18.935 0 0-9.677-4.897-11.667-11.912-0.328-0.601-2.077-0.739-1.956-1.181 0.117-0.447 1.154-0.479 2.222-0.296 0.544 0.105 1.437-1.094 2.4-1.6 3.068-1.609 8.091-0.156 10.161 0.832" fill="#000000" data-fill-palette-color="quaternary"></path></svg></g></svg></g><g></g></svg></g></svg></g></svg></g></svg></g><defs></defs></svg><rect width="342.85155851775386" height="342.85155851775386" fill="none" stroke="none" visibility="hidden"></rect></g></svg></g></svg>